<?xml version="1.0" encoding="UTF-8" standalone="no"?><!DOCTYPE svg PUBLIC "-//W3C//DTD SVG 1.1//EN" "http://www.w3.org/Graphics/SVG/1.1/DTD/svg11.dtd"><svg width="100%" height="100%" viewBox="0 0 5906 5906" version="1.1" xmlns="http://www.w3.org/2000/svg" xmlns:xlink="http://www.w3.org/1999/xlink" xml:space="preserve" xmlns:serif="http://www.serif.com/" style="fill-rule:evenodd;clip-rule:evenodd;stroke-linejoin:round;stroke-miterlimit:2;"><rect id="Final-Icon-Dark" serif:id="Final Icon Dark" x="0" y="0" width="5905.512" height="5905.512" style="fill:#090d1b;"/><g><path d="M426.736,185.543l2573.998,-14.244c1373.506,-2.736 2449.53,1262.025 2477.515,2697.992c31.315,1606.851 -1338.456,2760.961 -2680.692,2827.323l-1036.032,37.603c316.72,-131.444 590.586,-346.713 711.905,-694.268c192.482,7.897 284.655,-28.709 497.204,-37.535c925.142,-130.325 1806.455,-937.484 1835.219,-2012.721c66.781,-1317.44 -981.481,-2145.862 -1827.283,-2157.104l-1568.558,-11.736c-238.555,10.297 -378.015,244.425 -399.685,442.358c-15.757,143.928 -8.02,360.454 135.149,565.699c120.344,172.523 239.332,297.435 368.537,379.376c276.756,177.317 508.431,346.557 611.274,456.984c354.056,385.584 426.502,690.204 445.963,995.485l-635.309,5.907c-30.071,-176.872 -92.385,-306.207 -202.724,-456.324c-166.331,-175.719 -245.655,-251.337 -479.912,-392.391c-371.322,-223.586 -798.421,-673.217 -821.916,-1415.199l-4.654,-1217.205Z" style="fill:#5048e5;"/><path d="M1130.333,1124.623c57.017,107.603 189.28,197.913 357.86,220.736l1379.919,-3.344c974.966,62.161 1460.501,928.008 1434.468,1530.103c-41.037,949.087 -688.735,1505.579 -1518.776,1551.843l-937.751,-5.017c-450.535,25.165 -716.393,160.115 -730.771,362.877c-10.287,145.077 58.105,255.07 205.686,285.954c124.713,26.098 305.585,-77.737 391.305,-172.241c106.014,-134.468 177.118,-238.087 198.392,-390.395l642.747,2.434c-139.439,611.746 -408.811,1049.591 -1083.614,1201.815c-429.909,96.98 -860.631,-89.33 -964.885,-573.051c-81.302,-377.225 49.52,-795.43 413.044,-1088.631c191.697,-154.613 509.883,-286.853 812.711,-287.626l989.969,-18.353c397.589,24.055 891.468,-285.147 909.701,-873.29c13.213,-426.214 -308.854,-811.316 -870.921,-850.836l-706.005,-13.378c119.874,148.943 94.925,353.19 110.368,508.362c-231.221,-230.765 -390.585,-257.679 -692.309,-498.329c-224.856,-179.342 -393.14,-431.82 -341.138,-889.634Z" style="fill:#10b77f;"/></g></svg>